# xmcd CD database file
#
# Track frame offsets:
#	150
#	15670
#	33925
#	49445
#
# Disc length: 900 seconds
#
# Revision: 0
# Processed by: cddbd v1.5.1PL0 Copyright (c) Steve Scherf et al.
# Submitted via: CDex 1.51
#
DISCID=2b038204
DTITLE=w-inds. - キレイだ
DYEAR=2004
DGENRE=JPop
TTITLE0=キレイだ
TTITLE1=ふたりが、ふたりで
TTITLE2=キレイだ（Instrumental）
TTITLE3=ふたりが、ふたりで（Instrumental）
EXTD=YEAR: 2004
EXTT0=
EXTT1=
EXTT2=
EXTT3=
PLAYORDER=
